<?xml version="1.0" encoding="UTF-8"?><svg xmlns="http://www.w3.org/2000/svg" xmlns:xlink="http://www.w3.org/1999/xlink" height="52.0" preserveAspectRatio="xMidYMid meet" version="1.0" viewBox="6.0 6.0 52.0 52.0" width="52.0" zoomAndPan="magnify"><g fill-rule="evenodd"><g id="change1_1"><path d="M 32 6 C 46.351562 6 58 17.648438 58 32 C 58 46.351562 46.351562 58 32 58 C 17.648438 58 6 46.351562 6 32 C 6 17.648438 17.648438 6 32 6" fill="#57b7eb"/></g><g id="change2_1"><path d="M 14.644531 12.644531 C 10.515625 17.25 8 23.332031 8 30 C 8 44.351562 19.648438 56 34 56 C 40.667969 56 46.75 53.484375 51.355469 49.355469 C 46.59375 54.660156 39.683594 58 32 58 C 17.648438 58 6 46.351562 6 32 C 6 24.316406 9.339844 17.40625 14.644531 12.644531" fill="#4891d3"/></g><g id="change3_1"><path d="M 14.699219 33.808594 C 14.292969 33.6875 14.007812 33.324219 13.988281 32.902344 C 13.964844 32.480469 14.214844 32.089844 14.605469 31.925781 C 21.269531 29.183594 38.800781 21.964844 44.3125 19.695312 C 44.652344 19.554688 45.039062 19.609375 45.324219 19.839844 C 45.605469 20.070312 45.742188 20.433594 45.679688 20.792969 C 44.757812 25.957031 42.109375 40.78125 41.265625 45.523438 C 41.207031 45.851562 40.984375 46.132812 40.679688 46.265625 C 40.371094 46.398438 40.019531 46.371094 39.738281 46.1875 C 36.988281 44.417969 30.492188 40.246094 28 38.640625 C 27.75 38.480469 27.585938 38.222656 27.546875 37.929688 C 27.511719 37.636719 27.601562 37.34375 27.800781 37.125 C 30.335938 34.359375 38 26 38 26 C 38 26 24.816406 34.238281 22.382812 35.761719 C 22.140625 35.914062 21.84375 35.953125 21.566406 35.871094 C 20.394531 35.519531 17.097656 34.527344 14.699219 33.808594" fill="#f9f6f9"/></g></g></svg>